<svg xmlns="http://www.w3.org/2000/svg" xmlns:xlink="http://www.w3.org/1999/xlink" xmlns:lucid="lucid" width="1347" height="1299"><g transform="translate(2929 1472)" lucid:page-tab-id="0_0"><path d="M-2716.1-1440.8a5 5 0 0 1 5-5h881.5a5 5 0 0 1 5 5v1233.05a5 5 0 0 1-5 5h-881.5a5 5 0 0 1-5-5z" stroke="#333" fill="#cfe4ff"/><use xlink:href="#a" transform="matrix(1,0,0,1,-2708.086019307637,-1437.800755969495) translate(395.4382716049383 15.11111111111111)"/><path d="M-2810-1090.1c0 13.58-11.02 24.58-24.6 24.58-13.56 0-24.56-11-24.56-24.57 0-13.56 11-24.56 24.57-24.56 13.58 0 24.6 11 24.6 24.57z" stroke="#333" fill="#6db1ff"/><path d="M-2834.6-1065.52v64.66a17.54 17.54 0 0 0 2.65 9.25l46.5 74.94m-49.14-79.2l-49.13 79.2m0-124.28h98.3" stroke="#333" fill="none"/><path d="M-2883.73-1109.66a5 5 0 0 1 5-5h88.3a5 5 0 0 1 5 5v210a5 5 0 0 1-5 5h-88.3a5 5 0 0 1-5-5z" fill="none"/><use xlink:href="#b" transform="matrix(1,0,0,1,-2963.728836284271,-916.6577643774965) translate(71.79629629629629 11.333333333333336)"/><path d="M-1680.06-650.38c0 11.3-9.16 20.45-20.46 20.45s-20.45-9.16-20.45-20.45c0-11.3 9.16-20.46 20.45-20.46 11.3 0 20.46 9.16 20.46 20.46z" stroke="#333" fill="#6db1ff"/><path d="M-1700.52-629.93v62.1a18.92 18.92 0 0 0 2.47 9.34l38.44 67.66m-40.92-72l-40.9 72m0-118.64h81.8" stroke="#333" fill="none"/><path d="M-1741.42-665.84a5 5 0 0 1 5-5h71.8a5 5 0 0 1 5 5v192a5 5 0 0 1-5 5h-71.8a5 5 0 0 1-5-5z" fill="none"/><use xlink:href="#c" transform="matrix(1,0,0,1,-1821.4236973996071,-490.837151655223) translate(28.481481481481467 11.333333333333336)"/><use xlink:href="#d" transform="matrix(1,0,0,1,-1821.4236973996071,-490.837151655223) translate(142.48148148148147 11.333333333333336)"/><path d="M-2057.25-1052.2c0 29.83-32.23 54-72 54-39.76 0-72-24.17-72-54 0-29.82 32.24-54 72-54 39.77 0 72 24.18 72 54z" stroke="#333" stroke-width="3" fill="#6db1ff"/><use xlink:href="#e" transform="matrix(1,0,0,1,-2201.247612623346,-1106.1965769782018) translate(13.548209876543206 58.27777777777778)"/><use xlink:href="#f" transform="matrix(1,0,0,1,-2201.247612623346,-1106.1965769782018) translate(59.16549382716049 58.27777777777778)"/><path d="M-2822.98-580.8c0 13.15-10.65 23.8-23.8 23.8-13.13 0-23.78-10.65-23.78-23.8 0-13.13 10.65-23.78 23.8-23.78 13.13 0 23.78 10.65 23.78 23.8z" stroke="#333" fill="#6db1ff"/><path d="M-2846.77-557v61.6a14.06 14.06 0 0 0 3.16 8.9l58.83 72.25m-62-76.14l-62 76.14m0-118.95h124" stroke="#333" fill="none"/><path d="M-2908.77-599.58a5 5 0 0 1 5-5h114a5 5 0 0 1 5 5v202.33a5 5 0 0 1-5 5h-114a5 5 0 0 1-5-5z" fill="none"/><use xlink:href="#g" transform="matrix(1,0,0,1,-2988.7716934271284,-414.25495781001905) translate(104.29629629629629 11.333333333333336)"/><path d="M-1680.02-402.5c0 11.32-9.17 20.5-20.5 20.5-11.32 0-20.5-9.18-20.5-20.5s9.18-20.5 20.5-20.5c11.33 0 20.5 9.18 20.5 20.5z" stroke="#333" fill="#6db1ff"/><path d="M-1700.52-382v52.4a17.02 17.02 0 0 0 2.7 9.2l39.5 61.4m-42.2-65.6l-42.18 65.6m0-102.5h84.37" stroke="#333" fill="none"/><path d="M-1742.7-418a5 5 0 0 1 5-5h74.37a5 5 0 0 1 5 5v176a5 5 0 0 1-5 5h-74.37a5 5 0 0 1-5-5z" fill="none"/><use xlink:href="#h" transform="matrix(1,0,0,1,-1822.7020723751857,-259.0031174250371) translate(29.240740740740733 11.333333333333336)"/><use xlink:href="#d" transform="matrix(1,0,0,1,-1822.7020723751857,-259.0031174250371) translate(144.72222222222223 11.333333333333336)"/><path d="M-2301.82-1293.7c0 29.83-32.24 54-72 54s-72-24.17-72-54c0-29.82 32.24-54 72-54s72 24.18 72 54z" stroke="#333" stroke-width="3" fill="#6db1ff"/><use xlink:href="#i" transform="matrix(1,0,0,1,-2445.820952158014,-1347.6956509860674) translate(20.61611111111111 58.27777777777778)"/><use xlink:href="#j" transform="matrix(1,0,0,1,-2445.820952158014,-1347.6956509860674) translate(82.28277777777778 58.27777777777778)"/><path d="M-2133.87-1194.42c0 29.82-32.24 54-72 54-39.77 0-72-24.18-72-54s32.23-54 72-54c39.76 0 72 24.18 72 54z" stroke="#333" stroke-width="3" fill="#6db1ff"/><use xlink:href="#k" transform="matrix(1,0,0,1,-2277.8719361458466,-1248.4190654802646) translate(22.71487654320987 44.77777777777778)"/><use xlink:href="#j" transform="matrix(1,0,0,1,-2277.8719361458466,-1248.4190654802646) translate(51.449444444444445 71.44444444444446)"/><path d="M-1980.25-826.04c0 44.22-46.1 80.07-103 80.07-56.88 0-103-35.85-103-80.07 0-44.23 46.12-80.08 103-80.08 56.9 0 103 35.85 103 80.08z" stroke="#333" stroke-width="3" fill="#54c45e"/><use xlink:href="#l" transform="matrix(1,0,0,1,-2186.247612623346,-906.1194260195139) translate(77.11611111111111 86.73958333333334)"/><path d="M-2763.3-499.2h452.45M-2763.26-499.2h-1.53" stroke="#3a414a" stroke-width="3" fill="none"/><path d="M-2309.5-500.06l.43 2.38h-1.82v-3h1.3z" stroke="#3a414a" stroke-width=".05" fill="#3a414a"/><path d="M-2099.88-510.74l5.8-.7m11.6-1.36l11.58-1.38m11.6-1.38l11.6-1.38m11.6-1.38l11.58-1.37m11.6-1.37l11.6-1.38m11.6-1.38l11.58-1.37m11.6-1.38l11.6-1.38m11.58-1.38l11.6-1.37m11.6-1.4l11.6-1.37m11.58-1.38l11.6-1.37m11.6-1.38l11.58-1.38m11.6-1.38l11.6-1.37m11.6-1.38l11.58-1.4m11.6-1.37l11.6-1.37m11.58-1.38l5.8-.7" stroke="#3a414a" stroke-width="3" fill="none"/><path d="M-2099.67-509.25l-1.74.2.03-1.5v-1.15l-.03-.37 1.38-.16z" stroke="#3a414a" stroke-width=".05" fill="#3a414a"/><path d="M-1791.35-537.14l15.9-12.14-18.3-8.08M-2100.9-305.6h5.88m11.8 0h11.8m11.8 0h11.78m11.8 0h11.8m11.8 0h11.78m11.8 0h11.8m11.78 0h11.8m11.8 0h11.8m11.78 0h11.8m11.8 0h11.8m11.78 0h11.8m11.8 0h11.78m11.8 0h11.8m11.8 0h11.78m11.8 0h5.9" stroke="#3a414a" stroke-width="3" fill="none"/><path d="M-2100.88-304.1h-1.82l.1-.5.44-2.5h1.28z" stroke="#3a414a" stroke-width=".05" fill="#3a414a"/><path d="M-1788.1-295.42l17.2-10.18-17.2-10.2" stroke="#3a414a" stroke-width="3" fill="none"/><path d="M-2339.87-1001.78c0 78.3-70.32 141.8-157.06 141.8-86.73 0-157.05-63.5-157.05-141.8 0-78.3 70.32-141.8 157.05-141.8 86.74 0 157.06 63.5 157.06 141.8z" stroke="#333" stroke-width="3" fill="#6db1ff"/><use xlink:href="#m" transform="matrix(1,0,0,1,-2653.9786073138466,-1143.5707052702041) translate(28.94944444444446 125.1875)"/><use xlink:href="#n" transform="matrix(1,0,0,1,-2653.9786073138466,-1143.5707052702041) translate(120.00500000000001 173.1875)"/><path d="M-2425.57-1139l-.68 5.6-2.98-.35.68-5.6zm2.7-22.45l-1.36 11.22-2.97-.36 1.35-11.2zm1.35-11.22l-2.98-.36.64-5.38h3.03zm4.05-33.67l-.8 6.6h-3.02l.85-6.95zm2.7-22.44l-1.35 11.22-2.98-.36 1.35-11.22zm2.02-16.83l-.67 5.6-2.98-.36.67-5.6z" stroke="#3a414a" stroke-width=".05" fill="#3a414a"/><path d="M-2427.36-1136.72l10.62-13.86 2.38 1.83-13.7 17.88-9.08-20.63 2.75-1.2z" stroke="#3a414a" stroke-width=".05" fill="#3a414a"/><path d="M-2412.63-1246.6l-.12 1.03-2.98-.36.24-2.04z" fill="#3a414a"/><path d="M-2412.6-1246.6l-.13 1.05-3.03-.36.26-2.1zm-3.1.65l2.93.35.1-.97-2.8-1.36z" stroke="#3a414a" stroke-width=".05" fill="#3a414a"/><use xlink:href="#o" transform="matrix(1,0,0,1,-2459.9994803648246,-1199.7397986969274) translate(0 14.222222222222223)"/><path d="M-2357.3-1086.13l-4.44 4.4-2.1-2.13 4.42-4.4zm17.72-17.62l-8.86 8.8-2.1-2.12 8.85-8.8zm35.46-35.22l-8.86 8.8-2.12-2.12 8.87-8.8zm17.73-17.62l-8.86 8.82-2.1-2.13 8.85-8.8zm13.3-13.2l-4.43 4.4-2.1-2.12 4.42-4.4z" stroke="#3a414a" stroke-width=".05" fill="#3a414a"/><path d="M-2356.15-1101.93l-4.4 16.9 16.93-4.28.74 2.9-21.85 5.53 5.68-21.8z" stroke="#3a414a" stroke-width=".05" fill="#3a414a"/><path d="M-2273.14-1172l.87 1.38-.85.85-2.12-2.13 1.4-1.4z" fill="#3a414a"/><path d="M-2273.1-1172l.86 1.38-.88.9-2.15-2.18 1.44-1.43zm-2.1.1l2.08 2.1.82-.82-.86-1.36-.68-1.27z" stroke="#3a414a" stroke-width=".05" fill="#3a414a"/><use xlink:href="#o" transform="matrix(1,0,0,1,-2365.656517932262,-1129.3017573315703) translate(0 14.222222222222223)"/><path d="M-2329.8-1003.18l-5.5 1.92-1-2.83 5.5-1.92zm21.95-7.7l-10.98 3.85-1-2.83 11-3.85zm10.98-3.84l-.06-.16h.5zm54.1-21.5h-1.8l1.6-.56zm22.75-5.42l-10.98 3.85-1-2.82 11-3.85zm16.47-5.76l-5.5 1.92-.98-2.83 5.5-1.94z" stroke="#3a414a" stroke-width=".05" fill="#3a414a"/><path d="M-2202.7-1050.35l.2 2.58-1.08.38-1-2.82 1.86-.65z" fill="#3a414a"/><path d="M-2202.68-1050.35l.2 2.6-1.12.4-1-2.9 1.9-.66zm-1.86.14l.97 2.78 1.04-.37-.2-2.55v-.5zM-2321.56-1017.08l-11.25 13.36 17.12 3.42-.6 2.94-22.1-4.42 14.52-17.24z" stroke="#3a414a" stroke-width=".05" fill="#3a414a"/><use xlink:href="#o" transform="matrix(1,0,0,1,-2309.4381155015276,-1036.2129674170915) translate(0 14.222222222222223)"/><path d="M-2171.5-872.86l-.73 2.9-6-1.48.72-2.9zm-18.03-4.5l-.72 2.92-12.02-3 .72-2.9zm-24.03-5.97l-.73 2.9-12-2.98.72-2.93zm-96.14-23.94l-.72 2.9-12.02-3 .72-2.9zm-24.03-6l-.73 2.92-12-3 .7-2.9zm-24.04-5.97l-.72 2.9-6-1.5.72-2.9z" stroke="#3a414a" stroke-width=".05" fill="#3a414a"/><path d="M-2169.32-872.32l-2.17 2.56-.76-.2.72-2.9z" fill="#3a414a"/><path d="M-2169.28-872.33l-2.2 2.6-.8-.2.72-2.97zm-2.95 2.36l.73.18 2.13-2.5-2.15-.54zM-2344.33-923.5l-16.74 4.98 12.44 12.26-2.1 2.13-16.05-15.8 21.6-6.46z" stroke="#3a414a" stroke-width=".05" fill="#3a414a"/><use xlink:href="#o" transform="matrix(1,0,0,1,-2307.5351580158926,-906.1585177485609) translate(0 14.222222222222223)"/><path d="M-2758.04-1001.78h101.06M-2758-1001.78h-1.54" stroke="#3a414a" stroke-width="3" fill="none"/><path d="M-2655.48-1001.8l.02 1.52h-1.56v-3h1.57z" stroke="#3a414a" stroke-width=".05" fill="#3a414a"/><path d="M-2102.87-510.56c0 44.22-46.12 80.08-103 80.08-56.9 0-103-35.86-103-80.08 0-44.23 46.1-80.08 103-80.08 56.88 0 103 35.85 103 80.08z" stroke="#333" stroke-width="3" fill="#54c45e"/><use xlink:href="#p" transform="matrix(1,0,0,1,-2308.8719361458466,-590.6387037758859) translate(26.782777777777792 51.520833333333336)"/><use xlink:href="#q" transform="matrix(1,0,0,1,-2308.8719361458466,-590.6387037758859) translate(20.19018518518518 83.52083333333334)"/><use xlink:href="#r" transform="matrix(1,0,0,1,-2308.8719361458466,-590.6387037758859) translate(42.41240740740741 83.52083333333334)"/><use xlink:href="#s" transform="matrix(1,0,0,1,-2308.8719361458466,-590.6387037758859) translate(21.33833333333332 115.52083333333334)"/><use xlink:href="#t" transform="matrix(1,0,0,1,-2308.8719361458466,-590.6387037758859) translate(78.07907407407407 115.52083333333334)"/><path d="M-2102.87-317.08c0 44.22-46.12 80.08-103 80.08-56.9 0-103-35.86-103-80.08 0-44.23 46.1-80.08 103-80.08 56.88 0 103 35.85 103 80.08z" stroke="#333" stroke-width="3" fill="#54c45e"/><use xlink:href="#p" transform="matrix(1,0,0,1,-2308.8719361458466,-397.15747021061725) translate(26.782777777777792 51.520833333333336)"/><use xlink:href="#q" transform="matrix(1,0,0,1,-2308.8719361458466,-397.15747021061725) translate(20.19018518518518 83.52083333333334)"/><use xlink:href="#r" transform="matrix(1,0,0,1,-2308.8719361458466,-397.15747021061725) translate(42.41240740740741 83.52083333333334)"/><use xlink:href="#s" transform="matrix(1,0,0,1,-2308.8719361458466,-397.15747021061725) translate(20.597592592592587 115.52083333333334)"/><use xlink:href="#u" transform="matrix(1,0,0,1,-2308.8719361458466,-397.15747021061725) translate(77.33833333333334 115.52083333333334)"/><path d="M-2766.06-475.87l454.27 158.3M-2766.03-475.86l-1.45-.5" stroke="#3a414a" stroke-width="3" fill="none"/><path d="M-2310.33-318.66l-.04 1.57v1.16l.03.46-1.98-.7 1-2.82z" stroke="#3a414a" stroke-width=".05" fill="#3a414a"/><path d="M-2277.87-665.9c0 44.24-46.12 80.1-103 80.1-56.9 0-103-35.86-103-80.1 0-44.2 46.1-80.07 103-80.07 56.88 0 103 35.86 103 80.08z" stroke="#333" stroke-width="3" fill="#e08fff"/><g><use xlink:href="#v" transform="matrix(1,0,0,1,-2483.8719361458466,-745.9650732339337) translate(31.301296296296297 51.520833333333336)"/><use xlink:href="#w" transform="matrix(1,0,0,1,-2483.8719361458466,-745.9650732339337) translate(20.597592592592584 83.52083333333334)"/><use xlink:href="#x" transform="matrix(1,0,0,1,-2483.8719361458466,-745.9650732339337) translate(77.33833333333334 83.52083333333334)"/><use xlink:href="#y" transform="matrix(1,0,0,1,-2483.8719361458466,-745.9650732339337) translate(24.52351851851851 115.52083333333334)"/><use xlink:href="#t" transform="matrix(1,0,0,1,-2483.8719361458466,-745.9650732339337) translate(74.8938888888889 115.52083333333334)"/></g><path d="M-2763.38-525.18l289.85-100.44M-2763.34-525.2l-1.45.5" stroke="#3a414a" stroke-width="3" fill="none"/><path d="M-2471.2-624.84l-1.88.65-.98-2.83 1.03-.35z" stroke="#3a414a" stroke-width=".05" fill="#3a414a"/><path d="M-2274.88-665.7l5.95.7m11.9 1.42l11.9 1.42m11.9 1.42l11.88 1.42m11.9 1.42l11.9 1.42m11.9 1.4l11.9 1.43m11.88 1.42l11.9 1.42m11.9 1.4l11.9 1.43m11.9 1.42l11.88 1.42m11.9 1.42l11.9 1.4m11.9 1.43l11.9 1.42m11.9 1.42l11.9 1.42m11.9 1.4l11.88 1.43m11.9 1.4l11.9 1.43m11.9 1.42l11.9 1.42m11.88 1.42l11.9 1.42m11.9 1.42l11.9 1.42m11.9 1.42l11.9 1.42m11.88 1.42l11.9 1.42m11.9 1.42l11.9 1.42m11.9 1.42l11.88 1.4m11.9 1.43l11.9 1.42m11.9 1.42l5.94.7" stroke="#3a414a" stroke-width="3" fill="none"/><path d="M-2274.67-667.2l-.35 2.98-1.4-.16.05-1.5v-1.15l-.03-.37z" stroke="#3a414a" stroke-width=".05" fill="#3a414a"/><path d="M-1793.76-598.05l18.3-8.07-15.88-12.15" stroke="#3a414a" stroke-width="3" fill="none"/><defs><path fill="#333" d="M169-182c-1-43-94-46-97-3 18 66 151 10 154 114 3 95-165 93-204 36-6-8-10-19-12-30l50-8c3 46 112 56 116 5-17-69-150-10-154-114-4-87 153-88 188-35 5 8 8 18 10 28" id="z"/><path fill="#333" d="M25-224v-37h50v37H25zM25 0v-190h50V0H25" id="A"/><path fill="#333" d="M137-138c1-29-70-34-71-4 15 46 118 7 119 86 1 83-164 76-172 9l43-7c4 19 20 25 44 25 33 8 57-30 24-41C81-84 22-81 20-136c-2-80 154-74 161-7" id="B"/><path fill="#333" d="M115-3C79 11 28 4 28-45v-112H4v-33h27l15-45h31v45h36v33H77v99c-1 23 16 31 38 25v30" id="C"/><path fill="#333" d="M185-48c-13 30-37 53-82 52C43 2 14-33 14-96s30-98 90-98c62 0 83 45 84 108H66c0 31 8 55 39 56 18 0 30-7 34-22zm-45-69c5-46-57-63-70-21-2 6-4 13-4 21h74" id="D"/><path fill="#333" d="M220-157c-53 9-28 100-34 157h-49v-107c1-27-5-49-29-50C55-147 81-57 75 0H25l-1-190h47c2 12-1 28 3 38 10-53 101-56 108 0 13-22 24-43 59-42 82 1 51 116 57 194h-49v-107c-1-25-5-48-29-50" id="E"/><path fill="#333" d="M133-34C117-15 103 5 69 4 32 3 11-16 11-54c-1-60 55-63 116-61 1-26-3-47-28-47-18 1-26 9-28 27l-52-2c7-38 36-58 82-57s74 22 75 68l1 82c-1 14 12 18 25 15v27c-30 8-71 5-69-32zm-48 3c29 0 43-24 42-57-32 0-66-3-65 30 0 17 8 27 23 27" id="F"/><g id="a"><use transform="matrix(0.06172839506172839,0,0,0.06172839506172839,0,0)" xlink:href="#z"/><use transform="matrix(0.06172839506172839,0,0,0.06172839506172839,14.814814814814813,0)" xlink:href="#A"/><use transform="matrix(0.06172839506172839,0,0,0.06172839506172839,20.98765432098765,0)" xlink:href="#B"/><use transform="matrix(0.06172839506172839,0,0,0.06172839506172839,33.33333333333333,0)" xlink:href="#C"/><use transform="matrix(0.06172839506172839,0,0,0.06172839506172839,40.679012345679006,0)" xlink:href="#D"/><use transform="matrix(0.06172839506172839,0,0,0.06172839506172839,53.02469135802468,0)" xlink:href="#E"/><use transform="matrix(0.06172839506172839,0,0,0.06172839506172839,72.77777777777777,0)" xlink:href="#F"/></g><path fill="#333" d="M143 4C61 4 22-44 18-125c-5-107 100-154 193-111 17 8 29 25 37 43l-32 9c-13-25-37-40-76-40-61 0-88 39-88 99 0 61 29 100 91 101 35 0 62-11 79-27v-45h-74v-28h105v86C228-13 192 4 143 4" id="G"/><path fill="#333" d="M24-231v-30h32v30H24zM24 0v-190h32V0H24" id="H"/><path fill="#333" d="M100-194c62-1 85 37 85 99 1 63-27 99-86 99S16-35 15-95c0-66 28-99 85-99zM99-20c44 1 53-31 53-75 0-43-8-75-51-75s-53 32-53 75 10 74 51 75" id="I"/><path fill="#333" d="M96-169c-40 0-48 33-48 73s9 75 48 75c24 0 41-14 43-38l32 2c-6 37-31 61-74 61-59 0-76-41-82-99-10-93 101-131 147-64 4 7 5 14 7 22l-32 3c-4-21-16-35-41-35" id="J"/><path fill="#333" d="M141-36C126-15 110 5 73 4 37 3 15-17 15-53c-1-64 63-63 125-63 3-35-9-54-41-54-24 1-41 7-42 31l-33-3c5-37 33-52 76-52 45 0 72 20 72 64v82c-1 20 7 32 28 27v20c-31 9-61-2-59-35zM48-53c0 20 12 33 32 33 41-3 63-29 60-74-43 2-92-5-92 41" id="K"/><path fill="#333" d="M59-47c-2 24 18 29 38 22v24C64 9 27 4 27-40v-127H5v-23h24l9-43h21v43h35v23H59v120" id="L"/><path fill="#333" d="M114-163C36-179 61-72 57 0H25l-1-190h30c1 12-1 29 2 39 6-27 23-49 58-41v29" id="M"/><path fill="#333" d="M100-194c63 0 86 42 84 106H49c0 40 14 67 53 68 26 1 43-12 49-29l28 8c-11 28-37 45-77 45C44 4 14-33 15-96c1-61 26-98 85-98zm52 81c6-60-76-77-97-28-3 7-6 17-6 28h103" id="N"/><g id="b"><use transform="matrix(0.07407407407407408,0,0,0.07407407407407408,0,0)" xlink:href="#G"/><use transform="matrix(0.07407407407407408,0,0,0.07407407407407408,20.740740740740744,0)" xlink:href="#H"/><use transform="matrix(0.07407407407407408,0,0,0.07407407407407408,26.592592592592595,0)" xlink:href="#I"/><use transform="matrix(0.07407407407407408,0,0,0.07407407407407408,41.40740740740741,0)" xlink:href="#J"/><use transform="matrix(0.07407407407407408,0,0,0.07407407407407408,54.74074074074075,0)" xlink:href="#K"/><use transform="matrix(0.07407407407407408,0,0,0.07407407407407408,69.55555555555557,0)" xlink:href="#L"/><use transform="matrix(0.07407407407407408,0,0,0.07407407407407408,76.96296296296298,0)" xlink:href="#I"/><use transform="matrix(0.07407407407407408,0,0,0.07407407407407408,91.7777777777778,0)" xlink:href="#M"/><use transform="matrix(0.07407407407407408,0,0,0.07407407407407408,100.59259259259261,0)" xlink:href="#N"/></g><path fill="#333" d="M30 0v-248h187v28H63v79h144v27H63v87h162V0H30" id="O"/><path fill="#333" d="M108 0H70L1-190h34L89-25l56-165h34" id="P"/><path fill="#333" d="M185-189c-5-48-123-54-124 2 14 75 158 14 163 119 3 78-121 87-175 55-17-10-28-26-33-46l33-7c5 56 141 63 141-1 0-78-155-14-162-118-5-82 145-84 179-34 5 7 8 16 11 25" id="Q"/><path fill="#333" d="M84 4C-5 8 30-112 23-190h32v120c0 31 7 50 39 49 72-2 45-101 50-169h31l1 190h-30c-1-10 1-25-2-33-11 22-28 36-60 37" id="R"/><g id="c"><use transform="matrix(0.07407407407407408,0,0,0.07407407407407408,0,0)" xlink:href="#O"/><use transform="matrix(0.07407407407407408,0,0,0.07407407407407408,17.77777777777778,0)" xlink:href="#P"/><use transform="matrix(0.07407407407407408,0,0,0.07407407407407408,31.111111111111114,0)" xlink:href="#I"/><use transform="matrix(0.07407407407407408,0,0,0.07407407407407408,45.92592592592593,0)" xlink:href="#Q"/><use transform="matrix(0.07407407407407408,0,0,0.07407407407407408,63.70370370370371,0)" xlink:href="#R"/><use transform="matrix(0.07407407407407408,0,0,0.07407407407407408,78.51851851851853,0)" xlink:href="#H"/><use transform="matrix(0.07407407407407408,0,0,0.07407407407407408,84.37037037037038,0)" xlink:href="#L"/><use transform="matrix(0.07407407407407408,0,0,0.07407407407407408,91.77777777777779,0)" xlink:href="#N"/></g><path fill="#333" d="M233-177c-1 41-23 64-60 70L243 0h-38l-65-103H63V0H30v-248c88 3 205-21 203 71zM63-129c60-2 137 13 137-47 0-61-80-42-137-45v92" id="S"/><path fill="#333" d="M115-194c53 0 69 39 70 98 0 66-23 100-70 100C84 3 66-7 56-30L54 0H23l1-261h32v101c10-23 28-34 59-34zm-8 174c40 0 45-34 45-75 0-40-5-75-45-74-42 0-51 32-51 76 0 43 10 73 51 73" id="T"/><g id="d"><use transform="matrix(0.07407407407407408,0,0,0.07407407407407408,0,0)" xlink:href="#S"/><use transform="matrix(0.07407407407407408,0,0,0.07407407407407408,19.185185185185187,0)" xlink:href="#I"/><use transform="matrix(0.07407407407407408,0,0,0.07407407407407408,34,0)" xlink:href="#T"/><use transform="matrix(0.07407407407407408,0,0,0.07407407407407408,48.81481481481481,0)" xlink:href="#I"/><use transform="matrix(0.07407407407407408,0,0,0.07407407407407408,63.629629629629626,0)" xlink:href="#L"/></g><path fill="#333" d="M62-99C39-31 123 0 170-40s38-139 58-208h34C234-144 253 4 115 4 49 4 18-43 31-112l26-136h34" id="U"/><path fill="#333" d="M55-144c13 50 104 24 104 88C159 21 15 23 1-39l26-10c6 40 102 42 102-4-13-50-104-23-104-87 0-71 143-71 148-8l-29 4c-5-35-85-37-89 0" id="V"/><path fill="#333" d="M111-194c62-3 86 47 72 106H45c-7 38 6 69 45 68 27-1 43-14 53-32l24 11C152-15 129 4 87 4 38 3 12-23 12-71c0-70 32-119 99-123zm44 81c14-66-71-72-95-28-4 8-8 17-11 28h106" id="W"/><g id="e"><use transform="matrix(0.06172839506172839,0,0,0.06172839506172839,0,0)" xlink:href="#U"/><use transform="matrix(0.06172839506172839,0,0,0.06172839506172839,15.987654320987653,0)" xlink:href="#V"/><use transform="matrix(0.06172839506172839,0,0,0.06172839506172839,27.098765432098766,0)" xlink:href="#W"/></g><path fill="#333" d="M51-54c-9 22 5 41 31 30L79-1C43 14 10-4 19-52l22-115H19l5-23h22l19-43h21l-9 43h35l-4 23H73" id="X"/><path fill="#333" d="M50-231l6-30h32l-6 30H50zM6 0l37-190h31L37 0H6" id="Y"/><path fill="#333" d="M6 0l50-261h32L37 0H6" id="Z"/><g id="f"><use transform="matrix(0.06172839506172839,0,0,0.06172839506172839,0,0)" xlink:href="#U"/><use transform="matrix(0.06172839506172839,0,0,0.06172839506172839,15.987654320987653,0)" xlink:href="#X"/><use transform="matrix(0.06172839506172839,0,0,0.06172839506172839,22.160493827160494,0)" xlink:href="#Y"/><use transform="matrix(0.06172839506172839,0,0,0.06172839506172839,27.037037037037038,0)" xlink:href="#Z"/><use transform="matrix(0.06172839506172839,0,0,0.06172839506172839,31.913580246913586,0)" xlink:href="#Y"/><use transform="matrix(0.06172839506172839,0,0,0.06172839506172839,36.79012345679013,0)" xlink:href="#X"/><use transform="matrix(0.06172839506172839,0,0,0.06172839506172839,42.96296296296297,0)" xlink:href="#Y"/><use transform="matrix(0.06172839506172839,0,0,0.06172839506172839,47.83950617283951,0)" xlink:href="#W"/><use transform="matrix(0.06172839506172839,0,0,0.06172839506172839,60.18518518518519,0)" xlink:href="#V"/></g><path fill="#333" d="M205 0l-28-72H64L36 0H1l101-248h38L239 0h-34zm-38-99l-47-123c-12 45-31 82-46 123h93" id="aa"/><path fill="#333" d="M85-194c31 0 48 13 60 33l-1-100h32l1 261h-30c-2-10 0-23-3-31C134-8 116 4 85 4 32 4 16-35 15-94c0-66 23-100 70-100zm9 24c-40 0-46 34-46 75 0 40 6 74 45 74 42 0 51-32 51-76 0-42-9-74-50-73" id="ab"/><path fill="#333" d="M210-169c-67 3-38 105-44 169h-31v-121c0-29-5-50-35-48C34-165 62-65 56 0H25l-1-190h30c1 10-1 24 2 32 10-44 99-50 107 0 11-21 27-35 58-36 85-2 47 119 55 194h-31v-121c0-29-5-49-35-48" id="ac"/><path fill="#333" d="M117-194c89-4 53 116 60 194h-32v-121c0-31-8-49-39-48C34-167 62-67 57 0H25l-1-190h30c1 10-1 24 2 32 11-22 29-35 61-36" id="ad"/><g id="g"><use transform="matrix(0.07407407407407408,0,0,0.07407407407407408,0,0)" xlink:href="#aa"/><use transform="matrix(0.07407407407407408,0,0,0.07407407407407408,17.77777777777778,0)" xlink:href="#ab"/><use transform="matrix(0.07407407407407408,0,0,0.07407407407407408,32.592592592592595,0)" xlink:href="#ac"/><use transform="matrix(0.07407407407407408,0,0,0.07407407407407408,54.74074074074075,0)" xlink:href="#H"/><use transform="matrix(0.07407407407407408,0,0,0.07407407407407408,60.5925925925926,0)" xlink:href="#ad"/></g><path fill="#333" d="M115-194c55 1 70 41 70 98S169 2 115 4C84 4 66-9 55-30l1 105H24l-1-265h31l2 30c10-21 28-34 59-34zm-8 174c40 0 45-34 45-75s-6-73-45-74c-42 0-51 32-51 76 0 43 10 73 51 73" id="ae"/><g id="h"><use transform="matrix(0.07407407407407408,0,0,0.07407407407407408,0,0)" xlink:href="#S"/><use transform="matrix(0.07407407407407408,0,0,0.07407407407407408,19.185185185185187,0)" xlink:href="#K"/><use transform="matrix(0.07407407407407408,0,0,0.07407407407407408,34,0)" xlink:href="#ad"/><use transform="matrix(0.07407407407407408,0,0,0.07407407407407408,48.81481481481481,0)" xlink:href="#ab"/><use transform="matrix(0.07407407407407408,0,0,0.07407407407407408,63.629629629629626,0)" xlink:href="#I"/><use transform="matrix(0.07407407407407408,0,0,0.07407407407407408,78.44444444444446,0)" xlink:href="#I"/><use transform="matrix(0.07407407407407408,0,0,0.07407407407407408,93.25925925925927,0)" xlink:href="#ae"/></g><path fill="#333" d="M194-120c59 52 2 134-86 124-53-6-90-18-98-63l31-7c8 30 29 43 70 43 46 0 84-17 71-62-32-43-135-20-137-98-3-89 178-90 191-16l-30 9c-8-48-127-53-127 5 0 53 81 35 115 65" id="af"/><path fill="#333" d="M165-48c-4 18 1 34 23 27l-3 20c-29 8-62 0-52-35h-2C116-14 99 4 63 4 30 4 8-16 8-49c0-68 71-67 138-67 10-26 0-56-31-54-26 1-42 9-47 31l-32-5c8-67 160-71 144 15-5 28-9 54-15 81zM42-50c3 52 80 24 89-6 7-12 7-24 11-38-47 1-103-4-100 44" id="ag"/><path fill="#333" d="M89 0H52L20-190h33L74-25l89-165h34" id="ah"/><g id="i"><use transform="matrix(0.06172839506172839,0,0,0.06172839506172839,0,0)" xlink:href="#af"/><use transform="matrix(0.06172839506172839,0,0,0.06172839506172839,14.814814814814813,0)" xlink:href="#ag"/><use transform="matrix(0.06172839506172839,0,0,0.06172839506172839,27.160493827160494,0)" xlink:href="#Z"/><use transform="matrix(0.06172839506172839,0,0,0.06172839506172839,32.03703703703704,0)" xlink:href="#ah"/><use transform="matrix(0.06172839506172839,0,0,0.06172839506172839,43.14814814814815,0)" xlink:href="#ag"/></g><path fill="#333" d="M151-220L108 0H75l42-220H32l6-28h203l-5 28h-85" id="ai"/><g id="j"><use transform="matrix(0.06172839506172839,0,0,0.06172839506172839,0,0)" xlink:href="#ai"/><use transform="matrix(0.06172839506172839,0,0,0.06172839506172839,11.481481481481481,0)" xlink:href="#W"/><use transform="matrix(0.06172839506172839,0,0,0.06172839506172839,23.827160493827158,0)" xlink:href="#V"/><use transform="matrix(0.06172839506172839,0,0,0.06172839506172839,34.938271604938265,0)" xlink:href="#X"/></g><path fill="#333" d="M248-139C247-14 144 9 11 0l48-248c105-6 190 8 189 109zm-34 0c1-70-52-87-126-82L50-27c98 7 163-21 164-112" id="aj"/><path fill="#333" d="M30-147c31-64 166-65 159 27C183-49 158 1 86 4 9 8 1-88 30-147zM88-20c53 0 68-48 68-100 0-31-11-51-44-50-52 1-68 46-68 97 0 32 13 53 44 53" id="ak"/><path fill="#333" d="M188 0h-37l-8-164L71 0H34L18-190h31l8 164 75-164h34l8 164 74-164h31" id="al"/><path fill="#333" d="M67-158c22-48 132-52 116 29L158 0h-32l25-140c3-38-53-32-70-12C52-117 51-52 38 0H6l36-190h30" id="am"/><path fill="#333" d="M133-28C103 26-5 8 13-77c13-62 24-115 90-117 29-1 46 15 56 35l19-102h32L160 0h-30zM45-64c-2 27 10 43 35 43 54-1 69-50 69-103 0-29-15-46-42-46-53-1-58 58-62 106" id="an"/><g id="k"><use transform="matrix(0.06172839506172839,0,0,0.06172839506172839,0,0)" xlink:href="#aj"/><use transform="matrix(0.06172839506172839,0,0,0.06172839506172839,15.987654320987653,0)" xlink:href="#ak"/><use transform="matrix(0.06172839506172839,0,0,0.06172839506172839,28.333333333333332,0)" xlink:href="#al"/><use transform="matrix(0.06172839506172839,0,0,0.06172839506172839,44.32098765432099,0)" xlink:href="#am"/><use transform="matrix(0.06172839506172839,0,0,0.06172839506172839,56.666666666666664,0)" xlink:href="#Z"/><use transform="matrix(0.06172839506172839,0,0,0.06172839506172839,61.54320987654321,0)" xlink:href="#ak"/><use transform="matrix(0.06172839506172839,0,0,0.06172839506172839,73.88888888888889,0)" xlink:href="#ag"/><use transform="matrix(0.06172839506172839,0,0,0.06172839506172839,86.23456790123457,0)" xlink:href="#an"/></g><path fill="#333" d="M238-179c0 84-86 86-175 82L45 0H11l48-248c82 0 179-12 179 69zm-34 1c0-53-64-42-116-43l-19 98c63 0 135 9 135-55" id="ao"/><path fill="#333" d="M198-190L69 30C53 58 25 83-20 72c4-11-1-27 19-22 33-1 43-29 59-52L20-190h32L79-34l84-156h35" id="ap"/><g id="l"><use transform="matrix(0.07407407407407408,0,0,0.07407407407407408,0,0)" xlink:href="#ao"/><use transform="matrix(0.07407407407407408,0,0,0.07407407407407408,17.77777777777778,0)" xlink:href="#Z"/><use transform="matrix(0.07407407407407408,0,0,0.07407407407407408,23.629629629629633,0)" xlink:href="#ag"/><use transform="matrix(0.07407407407407408,0,0,0.07407407407407408,38.44444444444445,0)" xlink:href="#ap"/></g><path fill="#333" d="M44-68c0 29 11 47 38 47 30 0 42-19 51-41l28 9C148-21 126 4 82 4 31 4 10-29 12-85c3-77 74-140 146-93 12 8 15 23 18 40l-31 5c-1-22-13-36-36-36-52 0-65 49-65 101" id="aq"/><path fill="#333" d="M66-151c12-25 30-51 66-40l-6 26C45-176 58-65 38 0H6l36-190h30" id="ar"/><path fill="#333" d="M-20 4l123-265h28L8 4h-28" id="as"/><path fill="#333" d="M222 0l43-216c-8 16-17 34-26 49L143 0h-22L81-216 41 0H11l48-248h42l38 208 116-208h45L252 0h-30" id="at"/><path fill="#333" d="M76-167L44 0H12l33-167H18l4-23h27c3-47 25-81 82-69l-4 24c-35-8-44 15-46 45h37l-5 23H76" id="au"/><g id="m"><use transform="matrix(0.1111111111111111,0,0,0.1111111111111111,0,0)" xlink:href="#af"/><use transform="matrix(0.1111111111111111,0,0,0.1111111111111111,26.666666666666664,0)" xlink:href="#aq"/><use transform="matrix(0.1111111111111111,0,0,0.1111111111111111,46.666666666666664,0)" xlink:href="#ar"/><use transform="matrix(0.1111111111111111,0,0,0.1111111111111111,59.888888888888886,0)" xlink:href="#Y"/><use transform="matrix(0.1111111111111111,0,0,0.1111111111111111,68.66666666666666,0)" xlink:href="#ah"/><use transform="matrix(0.1111111111111111,0,0,0.1111111111111111,88.66666666666666,0)" xlink:href="#Y"/><use transform="matrix(0.1111111111111111,0,0,0.1111111111111111,97.44444444444443,0)" xlink:href="#as"/><use transform="matrix(0.1111111111111111,0,0,0.1111111111111111,108.55555555555554,0)" xlink:href="#at"/><use transform="matrix(0.1111111111111111,0,0,0.1111111111111111,141.77777777777777,0)" xlink:href="#ak"/><use transform="matrix(0.1111111111111111,0,0,0.1111111111111111,164,0)" xlink:href="#an"/><use transform="matrix(0.1111111111111111,0,0,0.1111111111111111,186.22222222222223,0)" xlink:href="#Y"/><use transform="matrix(0.1111111111111111,0,0,0.1111111111111111,195,0)" xlink:href="#au"/><use transform="matrix(0.1111111111111111,0,0,0.1111111111111111,206.11111111111111,0)" xlink:href="#Y"/><use transform="matrix(0.1111111111111111,0,0,0.1111111111111111,214.88888888888889,0)" xlink:href="#aq"/><use transform="matrix(0.1111111111111111,0,0,0.1111111111111111,234.88888888888889,0)" xlink:href="#ag"/></g><g id="n"><use transform="matrix(0.1111111111111111,0,0,0.1111111111111111,0,0)" xlink:href="#ai"/><use transform="matrix(0.1111111111111111,0,0,0.1111111111111111,20.666666666666664,0)" xlink:href="#W"/><use transform="matrix(0.1111111111111111,0,0,0.1111111111111111,42.888888888888886,0)" xlink:href="#V"/><use transform="matrix(0.1111111111111111,0,0,0.1111111111111111,62.888888888888886,0)" xlink:href="#X"/></g><path fill="#333" d="M15-91v-56l181-69v40L49-119l147 57v40" id="av"/><path fill="#333" d="M144 0l-44-69L55 0H2l70-98-66-92h53l41 62 40-62h54l-67 91 71 99h-54" id="aw"/><path fill="#333" d="M135-194c87-1 58 113 63 194h-50c-7-57 23-157-34-157-59 0-34 97-39 157H25l-1-190h47c2 12-1 28 3 38 12-26 28-41 61-42" id="ax"/><path fill="#333" d="M88-194c31-1 46 15 58 34l-1-101h50l1 261h-48c-2-10 0-23-3-31C134-8 116 4 84 4 32 4 16-41 15-95c0-56 19-97 73-99zm17 164c33 0 40-30 41-66 1-37-9-64-41-64s-38 30-39 65c0 43 13 65 39 65" id="ay"/><path fill="#333" d="M15-22v-40l146-57-146-57v-40l181 69v56" id="az"/><g id="o"><use transform="matrix(0.04938271604938272,0,0,0.04938271604938272,0,0)" xlink:href="#av"/><use transform="matrix(0.04938271604938272,0,0,0.04938271604938272,10.370370370370372,0)" xlink:href="#D"/><use transform="matrix(0.04938271604938272,0,0,0.04938271604938272,20.24691358024692,0)" xlink:href="#aw"/><use transform="matrix(0.04938271604938272,0,0,0.04938271604938272,30.123456790123466,0)" xlink:href="#C"/><use transform="matrix(0.04938271604938272,0,0,0.04938271604938272,36.00000000000001,0)" xlink:href="#D"/><use transform="matrix(0.04938271604938272,0,0,0.04938271604938272,45.87654320987655,0)" xlink:href="#ax"/><use transform="matrix(0.04938271604938272,0,0,0.04938271604938272,56.69135802469136,0)" xlink:href="#ay"/><use transform="matrix(0.04938271604938272,0,0,0.04938271604938272,67.50617283950618,0)" xlink:href="#az"/></g><path fill="#333" d="M52-101C46-14 166-7 216-51l9-45h-74l6-28h105l-18 87C217-12 181 4 130 4 60 4 18-31 18-101c0-106 78-167 188-146 30 6 48 27 59 54l-34 9c-10-26-31-41-67-40-75 1-107 50-112 123" id="aA"/><path fill="#333" d="M-8 0l5-24 140-142H31l5-24h145l-5 24L36-24h119l-5 24H-8" id="aB"/><g id="p"><use transform="matrix(0.07407407407407408,0,0,0.07407407407407408,0,0)" xlink:href="#aA"/><use transform="matrix(0.07407407407407408,0,0,0.07407407407407408,20.740740740740744,0)" xlink:href="#W"/><use transform="matrix(0.07407407407407408,0,0,0.07407407407407408,35.55555555555556,0)" xlink:href="#am"/><use transform="matrix(0.07407407407407408,0,0,0.07407407407407408,50.370370370370374,0)" xlink:href="#W"/><use transform="matrix(0.07407407407407408,0,0,0.07407407407407408,65.18518518518519,0)" xlink:href="#ar"/><use transform="matrix(0.07407407407407408,0,0,0.07407407407407408,74,0)" xlink:href="#ag"/><use transform="matrix(0.07407407407407408,0,0,0.07407407407407408,88.81481481481481,0)" xlink:href="#aB"/><use transform="matrix(0.07407407407407408,0,0,0.07407407407407408,102.14814814814814,0)" xlink:href="#Y"/><use transform="matrix(0.07407407407407408,0,0,0.07407407407407408,108,0)" xlink:href="#ak"/><use transform="matrix(0.07407407407407408,0,0,0.07407407407407408,122.81481481481481,0)" xlink:href="#am"/><use transform="matrix(0.07407407407407408,0,0,0.07407407407407408,137.62962962962962,0)" xlink:href="#W"/></g><use transform="matrix(0.07407407407407408,0,0,0.07407407407407408,0,0)" xlink:href="#W" id="q"/><path fill="#333" d="M67 3c-93-2-31-127-26-193h32L48-50c-3 39 53 32 70 12 30-34 30-101 43-152h32L157 0h-30c1-10 6-24 4-33-14 20-29 37-64 36" id="aC"/><g id="r"><use transform="matrix(0.07407407407407408,0,0,0.07407407407407408,0,0)" xlink:href="#at"/><use transform="matrix(0.07407407407407408,0,0,0.07407407407407408,22.148148148148152,0)" xlink:href="#Y"/><use transform="matrix(0.07407407407407408,0,0,0.07407407407407408,28.000000000000007,0)" xlink:href="#V"/><use transform="matrix(0.07407407407407408,0,0,0.07407407407407408,41.333333333333336,0)" xlink:href="#aC"/><use transform="matrix(0.07407407407407408,0,0,0.07407407407407408,56.14814814814815,0)" xlink:href="#ar"/><use transform="matrix(0.07407407407407408,0,0,0.07407407407407408,64.96296296296298,0)" xlink:href="#ag"/><use transform="matrix(0.07407407407407408,0,0,0.07407407407407408,79.7777777777778,0)" xlink:href="#aB"/><use transform="matrix(0.07407407407407408,0,0,0.07407407407407408,93.11111111111114,0)" xlink:href="#Y"/><use transform="matrix(0.07407407407407408,0,0,0.07407407407407408,98.96296296296299,0)" xlink:href="#ak"/><use transform="matrix(0.07407407407407408,0,0,0.07407407407407408,113.7777777777778,0)" xlink:href="#am"/><use transform="matrix(0.07407407407407408,0,0,0.07407407407407408,128.5925925925926,0)" xlink:href="#W"/></g><g id="s"><use transform="matrix(0.07407407407407408,0,0,0.07407407407407408,0,0)" xlink:href="#ai"/><use transform="matrix(0.07407407407407408,0,0,0.07407407407407408,13.77777777777778,0)" xlink:href="#W"/><use transform="matrix(0.07407407407407408,0,0,0.07407407407407408,28.592592592592595,0)" xlink:href="#V"/><use transform="matrix(0.07407407407407408,0,0,0.07407407407407408,41.92592592592593,0)" xlink:href="#X"/></g><path fill="#333" d="M11 0l48-248h184l-5 28H87l-15 79h140l-5 27H67L50-27h158l-5 27H11" id="aD"/><g id="t"><use transform="matrix(0.07407407407407408,0,0,0.07407407407407408,0,0)" xlink:href="#aD"/><use transform="matrix(0.07407407407407408,0,0,0.07407407407407408,17.77777777777778,0)" xlink:href="#ah"/><use transform="matrix(0.07407407407407408,0,0,0.07407407407407408,31.111111111111114,0)" xlink:href="#ak"/><use transform="matrix(0.07407407407407408,0,0,0.07407407407407408,45.92592592592593,0)" xlink:href="#af"/><use transform="matrix(0.07407407407407408,0,0,0.07407407407407408,63.70370370370371,0)" xlink:href="#aC"/><use transform="matrix(0.07407407407407408,0,0,0.07407407407407408,78.51851851851853,0)" xlink:href="#Y"/><use transform="matrix(0.07407407407407408,0,0,0.07407407407407408,84.37037037037038,0)" xlink:href="#X"/><use transform="matrix(0.07407407407407408,0,0,0.07407407407407408,91.77777777777779,0)" xlink:href="#W"/></g><path fill="#333" d="M249-183c0 48-29 72-75 77L221 0h-36l-43-103H65L45 0H11l48-248c83 2 190-17 190 65zm-34 3c0-55-74-39-127-41l-18 92c63-1 145 13 145-51" id="aE"/><path fill="#333" d="M67-162c32-53 139-36 121 50C175-51 163 2 97 4 68 4 52-11 42-31 38 6 28 39 22 75H-9l50-265h29c-1 10 0 20-3 28zm89 36c0-26-10-43-35-43-54 0-67 50-69 103-1 29 14 45 42 46 53 0 62-58 62-106" id="aF"/><g id="u"><use transform="matrix(0.07407407407407408,0,0,0.07407407407407408,0,0)" xlink:href="#aE"/><use transform="matrix(0.07407407407407408,0,0,0.07407407407407408,19.185185185185187,0)" xlink:href="#ag"/><use transform="matrix(0.07407407407407408,0,0,0.07407407407407408,34,0)" xlink:href="#am"/><use transform="matrix(0.07407407407407408,0,0,0.07407407407407408,48.81481481481481,0)" xlink:href="#an"/><use transform="matrix(0.07407407407407408,0,0,0.07407407407407408,63.629629629629626,0)" xlink:href="#ak"/><use transform="matrix(0.07407407407407408,0,0,0.07407407407407408,78.44444444444446,0)" xlink:href="#ak"/><use transform="matrix(0.07407407407407408,0,0,0.07407407407407408,93.25925925925927,0)" xlink:href="#aF"/></g><g id="v"><use transform="matrix(0.07407407407407408,0,0,0.07407407407407408,0,0)" xlink:href="#at"/><use transform="matrix(0.07407407407407408,0,0,0.07407407407407408,22.148148148148152,0)" xlink:href="#Y"/><use transform="matrix(0.07407407407407408,0,0,0.07407407407407408,28.000000000000007,0)" xlink:href="#V"/><use transform="matrix(0.07407407407407408,0,0,0.07407407407407408,41.333333333333336,0)" xlink:href="#aC"/><use transform="matrix(0.07407407407407408,0,0,0.07407407407407408,56.14814814814815,0)" xlink:href="#ar"/><use transform="matrix(0.07407407407407408,0,0,0.07407407407407408,64.96296296296298,0)" xlink:href="#ag"/><use transform="matrix(0.07407407407407408,0,0,0.07407407407407408,79.7777777777778,0)" xlink:href="#aB"/><use transform="matrix(0.07407407407407408,0,0,0.07407407407407408,93.11111111111114,0)" xlink:href="#Y"/><use transform="matrix(0.07407407407407408,0,0,0.07407407407407408,98.96296296296299,0)" xlink:href="#ak"/><use transform="matrix(0.07407407407407408,0,0,0.07407407407407408,113.7777777777778,0)" xlink:href="#am"/><use transform="matrix(0.07407407407407408,0,0,0.07407407407407408,128.5925925925926,0)" xlink:href="#W"/></g><g id="w"><use transform="matrix(0.07407407407407408,0,0,0.07407407407407408,0,0)" xlink:href="#ai"/><use transform="matrix(0.07407407407407408,0,0,0.07407407407407408,13.77777777777778,0)" xlink:href="#W"/><use transform="matrix(0.07407407407407408,0,0,0.07407407407407408,28.592592592592595,0)" xlink:href="#V"/><use transform="matrix(0.07407407407407408,0,0,0.07407407407407408,41.92592592592593,0)" xlink:href="#X"/></g><g id="x"><use transform="matrix(0.07407407407407408,0,0,0.07407407407407408,0,0)" xlink:href="#aE"/><use transform="matrix(0.07407407407407408,0,0,0.07407407407407408,19.185185185185187,0)" xlink:href="#ag"/><use transform="matrix(0.07407407407407408,0,0,0.07407407407407408,34,0)" xlink:href="#am"/><use transform="matrix(0.07407407407407408,0,0,0.07407407407407408,48.81481481481481,0)" xlink:href="#an"/><use transform="matrix(0.07407407407407408,0,0,0.07407407407407408,63.629629629629626,0)" xlink:href="#ak"/><use transform="matrix(0.07407407407407408,0,0,0.07407407407407408,78.44444444444446,0)" xlink:href="#ak"/><use transform="matrix(0.07407407407407408,0,0,0.07407407407407408,93.25925925925927,0)" xlink:href="#aF"/></g><g id="y"><use transform="matrix(0.07407407407407408,0,0,0.07407407407407408,0,0)" xlink:href="#aq"/><use transform="matrix(0.07407407407407408,0,0,0.07407407407407408,13.333333333333336,0)" xlink:href="#ak"/><use transform="matrix(0.07407407407407408,0,0,0.07407407407407408,28.148148148148152,0)" xlink:href="#am"/></g></defs></g></svg>